<svg width="30" height="30" viewBox="0 0 30 30" fill="none" xmlns="http://www.w3.org/2000/svg">
<g clip-path="url(#clip0_743_3787)">
<path d="M27.1875 0.703111H2.8125C2.25945 0.697483 1.72675 0.911481 1.33129 1.29815C0.935838 1.68482 0.709925 2.21257 0.703125 2.76561V27.239C0.711154 27.7913 0.937608 28.3178 1.33293 28.7035C1.72825 29.0891 2.26025 29.3025 2.8125 29.2969H27.1875C27.7406 29.3012 28.2729 29.0865 28.6682 28.6996C29.0634 28.3127 29.2895 27.7851 29.2969 27.232V2.75858C29.287 2.20716 29.0599 1.68192 28.6649 1.29703C28.2699 0.912137 27.739 0.6987 27.1875 0.703111Z" fill="#0076B2"/>
<path d="M4.93516 11.4211H9.17969V25.0782H4.93516V11.4211ZM7.05859 4.62427C7.54542 4.62427 8.02131 4.76866 8.42606 5.03917C8.83081 5.30969 9.14623 5.69417 9.33243 6.14399C9.51862 6.5938 9.56722 7.08873 9.47207 7.56617C9.37693 8.04361 9.14231 8.48211 8.79791 8.82618C8.45351 9.17025 8.01479 9.40445 7.53726 9.49914C7.05973 9.59383 6.56485 9.54476 6.11521 9.35814C5.66557 9.17152 5.28139 8.85573 5.01126 8.45072C4.74113 8.04572 4.59719 7.56969 4.59766 7.08286C4.59828 6.43059 4.85783 5.80524 5.31928 5.34423C5.78073 4.88322 6.40632 4.62427 7.05859 4.62427ZM11.8422 11.4211H15.9109V13.2961H15.9672C16.5344 12.2227 17.9172 11.0907 19.982 11.0907C24.2805 11.0813 25.0773 13.9102 25.0773 17.5782V25.0782H20.8328V18.4336C20.8328 16.8516 20.8047 14.8149 18.6273 14.8149C16.45 14.8149 16.0797 16.5399 16.0797 18.3305V25.0782H11.8422V11.4211Z" fill="white"/>
</g>
<defs>
<clipPath id="clip0_743_3787">
<rect width="30" height="30" fill="white"/>
</clipPath>
</defs>
</svg>
