<svg width="24" height="25" viewBox="0 0 24 25" fill="none" xmlns="http://www.w3.org/2000/svg">
<g clip-path="url(#clip0_625_3598)">
<path d="M0.512578 12.5982C0.512016 14.6147 1.04302 16.5836 2.0527 18.3191L0.416016 24.2486L6.53152 22.6575C8.22298 23.5712 10.1181 24.0499 12.044 24.0501H12.0491C18.4067 24.0501 23.582 18.9167 23.5847 12.6073C23.586 9.54987 22.3871 6.67489 20.2089 4.51191C18.0311 2.34912 15.1347 1.1574 12.0486 1.15601C5.6902 1.15601 0.515297 6.28903 0.512672 12.5982" fill="url(#paint0_linear_625_3598)"/>
<path d="M0.100313 12.5946C0.0996563 14.6836 0.649687 16.723 1.69537 18.5205L0 24.6626L6.33478 23.0145C8.08022 23.9588 10.0454 24.4566 12.0451 24.4574H12.0502C18.636 24.4574 23.9972 19.1394 24 12.6041C24.0011 9.43683 22.7591 6.4585 20.5031 4.21804C18.2468 1.97785 15.2468 0.743246 12.0502 0.741943C5.46337 0.741943 0.102938 6.05915 0.100313 12.5946ZM3.87281 18.211L3.63628 17.8384C2.64197 16.2697 2.11716 14.4568 2.11791 12.5953C2.12006 7.16325 6.57544 2.7438 12.054 2.7438C14.7071 2.74492 17.2005 3.77115 19.0759 5.63311C20.9512 7.49525 21.9831 9.97059 21.9824 12.6033C21.98 18.0354 17.5245 22.4554 12.0502 22.4554H12.0463C10.2638 22.4545 8.51569 21.9795 6.99113 21.0819L6.62831 20.8685L2.86912 21.8464L3.87281 18.2109V18.211Z" fill="url(#paint1_linear_625_3598)"/>
<path d="M9.06383 7.63965C8.84014 7.14635 8.60473 7.13639 8.39202 7.12774C8.21783 7.1203 8.0187 7.12086 7.81977 7.12086C7.62064 7.12086 7.29711 7.19518 7.02364 7.49146C6.74989 7.78802 5.97852 8.50467 5.97852 9.96225C5.97852 11.4199 7.04848 12.8286 7.19764 13.0264C7.34698 13.2239 9.26323 16.3108 12.2981 17.4983C14.8204 18.4852 15.3336 18.2889 15.881 18.2395C16.4285 18.1902 17.6477 17.523 17.8964 16.8312C18.1453 16.1395 18.1453 15.5465 18.0707 15.4226C17.996 15.2992 17.7969 15.225 17.4983 15.077C17.1996 14.9288 15.7317 14.212 15.458 14.1131C15.1843 14.0143 14.9853 13.965 14.7861 14.2617C14.587 14.5579 14.0152 15.225 13.841 15.4226C13.6669 15.6207 13.4926 15.6453 13.1941 15.4971C12.8953 15.3485 11.9337 15.036 10.7929 14.0268C9.90523 13.2415 9.30598 12.2717 9.1318 11.9751C8.95761 11.6789 9.11314 11.5183 9.26286 11.3707C9.39702 11.238 9.56155 11.0248 9.71098 10.8518C9.85986 10.6788 9.90955 10.5554 10.0091 10.3578C10.1088 10.16 10.0589 9.987 9.98436 9.83881C9.90955 9.69063 9.32933 8.22542 9.06383 7.63965Z" fill="white"/>
</g>
<defs>
<linearGradient id="paint0_linear_625_3598" x1="1158.85" y1="2310.41" x2="1158.85" y2="1.15601" gradientUnits="userSpaceOnUse">
<stop stop-color="#1FAF38"/>
<stop offset="1" stop-color="#60D669"/>
</linearGradient>
<linearGradient id="paint1_linear_625_3598" x1="1200" y1="2392.81" x2="1200" y2="0.741943" gradientUnits="userSpaceOnUse">
<stop stop-color="#F9F9F9"/>
<stop offset="1" stop-color="white"/>
</linearGradient>
<clipPath id="clip0_625_3598">
<rect width="24" height="24" fill="white" transform="translate(0 0.741943)"/>
</clipPath>
</defs>
</svg>
