<svg width="24" height="25" viewBox="0 0 24 25" fill="none" xmlns="http://www.w3.org/2000/svg">
<g clip-path="url(#clip0_625_3595)">
<path d="M24 12.7419C24 6.11457 18.6274 0.741943 12 0.741943C5.37262 0.741943 0 6.11447 0 12.7419C0 18.7314 4.38825 23.696 10.125 24.5962V16.2107H7.07812V12.7419H10.125V10.0982C10.125 7.09069 11.9166 5.42944 14.6575 5.42944C15.9705 5.42944 17.3438 5.66382 17.3438 5.66382V8.61694H15.8306C14.3398 8.61694 13.875 9.54198 13.875 10.491V12.7419H17.2031L16.6711 16.2107H13.875V24.5962C19.6117 23.696 24 18.7315 24 12.7419Z" fill="#1877F2"/>
<path d="M16.6711 16.2107L17.2031 12.7419H13.875V10.491C13.875 9.54188 14.3399 8.61694 15.8306 8.61694H17.3438V5.66382C17.3438 5.66382 15.9705 5.42944 14.6575 5.42944C11.9166 5.42944 10.125 7.09069 10.125 10.0982V12.7419H7.07812V16.2107H10.125V24.5962C10.7453 24.6934 11.3722 24.7421 12 24.7419C12.6278 24.7421 13.2547 24.6934 13.875 24.5962V16.2107H16.6711Z" fill="white"/>
</g>
<defs>
<clipPath id="clip0_625_3595">
<rect width="24" height="24" fill="white" transform="translate(0 0.741943)"/>
</clipPath>
</defs>
</svg>
