<svg width="24" height="25" viewBox="0 0 24 25" fill="none" xmlns="http://www.w3.org/2000/svg">
<path d="M14.4563 4.34664C14.4753 4.27521 14.5082 4.20823 14.5532 4.14954C14.5981 4.09085 14.6542 4.0416 14.7182 4.00459C14.7822 3.96759 14.8529 3.94356 14.9261 3.93388C14.9994 3.92421 15.0739 3.92907 15.1453 3.9482C16.5039 4.30259 17.7435 5.01279 18.7363 6.00562C19.7292 6.99845 20.4394 8.23802 20.7938 9.59664C20.8129 9.66805 20.8178 9.74252 20.8081 9.81581C20.7984 9.8891 20.7744 9.95976 20.7374 10.0238C20.7004 10.0878 20.6511 10.1438 20.5924 10.1888C20.5337 10.2337 20.4668 10.2667 20.3953 10.2857C20.3479 10.2983 20.2991 10.3046 20.25 10.3045C20.1261 10.3045 20.0056 10.2637 19.9073 10.1882C19.8089 10.1128 19.7383 10.007 19.7063 9.88726C19.402 8.72025 18.792 7.65548 17.9393 6.8027C17.0865 5.94991 16.0217 5.33996 14.8547 5.0357C14.7833 5.01666 14.7163 4.98372 14.6576 4.93877C14.5989 4.89383 14.5497 4.83775 14.5126 4.77376C14.4756 4.70976 14.4516 4.6391 14.4419 4.56581C14.4323 4.49252 14.4371 4.41805 14.4563 4.34664ZM14.1047 8.0357C15.4688 8.39945 16.3425 9.2732 16.7063 10.6373C16.7383 10.757 16.8089 10.8628 16.9073 10.9382C17.0056 11.0137 17.1261 11.0545 17.25 11.0545C17.2991 11.0546 17.3479 11.0483 17.3953 11.0357C17.4668 11.0167 17.5337 10.9837 17.5924 10.9388C17.6511 10.8938 17.7004 10.8378 17.7374 10.7738C17.7744 10.7098 17.7984 10.6391 17.8081 10.5658C17.8178 10.4925 17.8129 10.418 17.7938 10.3466C17.325 8.59258 16.1494 7.41695 14.3953 6.9482C14.3239 6.92912 14.2494 6.92429 14.1762 6.93398C14.1029 6.94368 14.0323 6.96771 13.9683 7.00471C13.839 7.07943 13.7448 7.20243 13.7063 7.34664C13.6677 7.49085 13.688 7.64446 13.7628 7.77369C13.8375 7.90291 13.9605 7.99716 14.1047 8.0357ZM21.5522 17.1295C21.3916 18.355 20.7902 19.4801 19.8604 20.2945C18.9306 21.1088 17.736 21.5567 16.5 21.5545C9.15938 21.5545 3.18751 15.5826 3.18751 8.24195C3.18514 7.00637 3.63265 5.81217 4.44645 4.88244C5.26025 3.9527 6.38468 3.35101 7.6097 3.18976C7.89169 3.15549 8.1772 3.21364 8.42333 3.35547C8.66947 3.4973 8.86294 3.71516 8.9747 3.97633L10.9528 8.39195C11.0402 8.59185 11.0763 8.81037 11.058 9.02775C11.0396 9.24512 10.9674 9.4545 10.8478 9.63695C10.8358 9.65552 10.8226 9.67337 10.8084 9.69039L8.83313 12.0398C8.82114 12.0641 8.8149 12.0909 8.8149 12.118C8.8149 12.1452 8.82114 12.172 8.83313 12.1963C9.55126 13.6663 11.0925 15.1963 12.5831 15.9135C12.608 15.9249 12.6352 15.9303 12.6625 15.9293C12.6899 15.9283 12.7166 15.921 12.7406 15.9079L15.0553 13.9391C15.0718 13.9248 15.0894 13.9116 15.1078 13.8998C15.2895 13.7787 15.4984 13.7048 15.7158 13.6848C15.9332 13.6648 16.1522 13.6994 16.3528 13.7854L20.7816 15.7701C21.0393 15.8843 21.2533 16.0784 21.3921 16.3237C21.5309 16.5691 21.587 16.8526 21.5522 17.1323V17.1295ZM20.4375 16.9907C20.4407 16.9515 20.4314 16.9123 20.411 16.8787C20.3907 16.845 20.3603 16.8186 20.3241 16.8032L15.8944 14.8185C15.8702 14.8092 15.8442 14.8052 15.8184 14.8068C15.7925 14.8084 15.7672 14.8156 15.7444 14.8279L13.4306 16.7966C13.4138 16.8107 13.3959 16.8238 13.3781 16.836C13.1894 16.9619 12.9713 17.0367 12.745 17.0531C12.5188 17.0695 12.2921 17.027 12.0872 16.9298C10.3659 16.0982 8.65032 14.3985 7.81876 12.6932C7.72095 12.4895 7.67742 12.2639 7.69236 12.0384C7.70731 11.8129 7.78023 11.5951 7.90407 11.406C7.91614 11.3872 7.92962 11.3693 7.94438 11.3526L9.91876 9.0032C9.93004 8.97865 9.93588 8.95194 9.93588 8.92492C9.93588 8.8979 9.93004 8.87119 9.91876 8.84664L7.94438 4.42726C7.93135 4.39179 7.90791 4.36109 7.87713 4.33917C7.84635 4.31726 7.80966 4.30516 7.77188 4.30445H7.75032C6.79683 4.43129 5.9221 4.90083 5.28947 5.62541C4.65685 6.34999 4.30958 7.28007 4.31251 8.24195C4.31251 14.962 9.78001 20.4295 16.5 20.4295C17.462 20.4324 18.3922 20.085 19.1168 19.4521C19.8414 18.8193 20.3109 17.9444 20.4375 16.9907Z" fill="black"/>
</svg>
