<svg width="17" height="19" viewBox="0 0 17 19" fill="none" xmlns="http://www.w3.org/2000/svg">
<path d="M16.72 13.4259L14.8679 10.0066V6.44643C14.8679 2.89186 11.976 0 8.42148 0C4.86691 0 1.97505 2.89186 1.97505 6.44643V10.0066L0.122891 13.4259C0.0388976 13.5809 -0.00337672 13.7551 0.000210712 13.9314C0.00379814 14.1077 0.0531243 14.2801 0.143356 14.4316C0.233587 14.5831 0.361629 14.7085 0.514934 14.7956C0.66824 14.8828 0.841551 14.9286 1.01788 14.9286H4.70486C4.69458 15.0414 4.68938 15.1546 4.68929 15.2679C4.68929 16.2577 5.0825 17.207 5.78241 17.9069C6.48233 18.6068 7.43161 19 8.42144 19C9.41126 19 10.3605 18.6068 11.0605 17.9069C11.7604 17.207 12.1536 16.2577 12.1536 15.2679C12.1536 15.1533 12.1481 15.0404 12.138 14.9286H15.825C16.0013 14.9285 16.1746 14.8827 16.3279 14.7956C16.4812 14.7085 16.6092 14.583 16.6994 14.4315C16.7896 14.28 16.8389 14.1077 16.8425 13.9314C16.8461 13.7551 16.804 13.581 16.72 13.4259ZM10.7965 15.2679C10.7967 15.5942 10.7297 15.9172 10.5996 16.2165C10.4695 16.5158 10.2791 16.7851 10.0403 17.0076C9.8015 17.2301 9.51939 17.4009 9.2116 17.5095C8.9038 17.6181 8.57694 17.6621 8.25139 17.6387C7.92585 17.6153 7.60861 17.5251 7.31949 17.3737C7.03037 17.2222 6.77556 17.0128 6.57098 16.7585C6.36639 16.5042 6.21642 16.2105 6.13042 15.8956C6.04441 15.5808 6.02423 15.2516 6.07112 14.9286H10.7718C10.7881 15.0409 10.7964 15.1543 10.7965 15.2679ZM1.5875 13.5714L3.3322 10.3505V6.44643C3.3322 5.09667 3.86839 3.80219 4.82281 2.84776C5.77724 1.89333 7.07172 1.35714 8.42148 1.35714C9.77124 1.35714 11.0657 1.89333 12.0201 2.84776C12.9746 3.80219 13.5108 5.09667 13.5108 6.44643V10.3505L15.2554 13.5714H1.5875Z" fill="#151313"/>
</svg>
