<svg width="18" height="18" viewBox="0 0 18 18" fill="none" xmlns="http://www.w3.org/2000/svg">
<path d="M10.56 1.125C10.6791 1.125 10.7951 1.1628 10.8914 1.23296C10.9876 1.30311 11.0591 1.402 11.0955 1.51538L11.7143 3.438C11.9742 3.56512 12.2228 3.708 12.4602 3.86887L14.4357 3.44363C14.5521 3.41876 14.6735 3.4315 14.7823 3.48002C14.891 3.52855 14.9816 3.61034 15.0409 3.71363L16.6002 6.4125C16.6597 6.51573 16.6849 6.63519 16.6722 6.75368C16.6595 6.87216 16.6094 6.98354 16.5293 7.07175L15.1737 8.568C15.1934 8.85491 15.1934 9.14284 15.1737 9.42975L16.5293 10.9282C16.6094 11.0165 16.6595 11.1278 16.6722 11.2463C16.6849 11.3648 16.6597 11.4843 16.6002 11.5875L15.0409 14.2875C14.9814 14.3906 14.8908 14.4721 14.7821 14.5205C14.6733 14.5688 14.552 14.5813 14.4357 14.5564L12.4602 14.1311C12.2239 14.2909 11.9742 14.4349 11.7154 14.562L11.0955 16.4846C11.0591 16.598 10.9876 16.6969 10.8914 16.767C10.7951 16.8372 10.6791 16.875 10.56 16.875H7.44154C7.32245 16.875 7.20644 16.8372 7.1102 16.767C7.01397 16.6969 6.94248 16.598 6.90604 16.4846L6.28842 14.5631C6.02925 14.4364 5.77927 14.2916 5.54029 14.13L3.56592 14.5564C3.44944 14.5812 3.32808 14.5685 3.21931 14.52C3.11054 14.4715 3.01998 14.3897 2.96067 14.2864L1.40142 11.5875C1.34188 11.4843 1.31666 11.3648 1.3294 11.2463C1.34213 11.1278 1.39217 11.0165 1.47229 10.9282L2.82792 9.42975C2.80828 9.14359 2.80828 8.85641 2.82792 8.57025L1.47229 7.07175C1.39217 6.98354 1.34213 6.87216 1.3294 6.75368C1.31666 6.63519 1.34188 6.51573 1.40142 6.4125L2.96067 3.7125C3.02014 3.60942 3.11077 3.52786 3.21953 3.47955C3.32828 3.43123 3.44956 3.41865 3.56592 3.44363L5.54029 3.87C5.77879 3.70913 6.02854 3.564 6.28842 3.43688L6.90717 1.51538C6.94349 1.40236 7.01464 1.30374 7.11042 1.23362C7.2062 1.1635 7.32171 1.12548 7.44042 1.125H10.5589H10.56ZM10.1483 2.25H7.85329L7.21429 4.23787L6.78342 4.44825C6.5716 4.5519 6.36712 4.66992 6.17142 4.8015L5.77317 5.0715L3.73017 4.6305L2.58267 6.6195L3.98329 8.16975L3.94954 8.64675C3.93337 8.88197 3.93337 9.11803 3.94954 9.35325L3.98329 9.83025L2.58042 11.3805L3.72904 13.3695L5.77204 12.9296L6.17029 13.1985C6.36599 13.3301 6.57047 13.4481 6.78229 13.5517L7.21317 13.7621L7.85329 15.75H10.1505L10.7918 13.761L11.2215 13.5517C11.4331 13.4484 11.6373 13.3303 11.8324 13.1985L12.2295 12.9296L14.2737 13.3695L15.4212 11.3805L14.0194 9.83025L14.0532 9.35325C14.0694 9.11765 14.0694 8.88122 14.0532 8.64563L14.0194 8.16863L15.4223 6.6195L14.2737 4.6305L12.2295 5.06925L11.8324 4.8015C11.6373 4.66968 11.4331 4.55165 11.2215 4.44825L10.7918 4.239L10.1494 2.25H10.1483ZM9.00079 5.625C9.8959 5.625 10.7543 5.98058 11.3873 6.61351C12.0202 7.24645 12.3758 8.10489 12.3758 9C12.3758 9.89511 12.0202 10.7536 11.3873 11.3865C10.7543 12.0194 9.8959 12.375 9.00079 12.375C8.10569 12.375 7.24724 12.0194 6.61431 11.3865C5.98137 10.7536 5.62579 9.89511 5.62579 9C5.62579 8.10489 5.98137 7.24645 6.61431 6.61351C7.24724 5.98058 8.10569 5.625 9.00079 5.625ZM9.00079 6.75C8.40406 6.75 7.83176 6.98705 7.4098 7.40901C6.98785 7.83097 6.75079 8.40326 6.75079 9C6.75079 9.59674 6.98785 10.169 7.4098 10.591C7.83176 11.0129 8.40406 11.25 9.00079 11.25C9.59753 11.25 10.1698 11.0129 10.5918 10.591C11.0137 10.169 11.2508 9.59674 11.2508 9C11.2508 8.40326 11.0137 7.83097 10.5918 7.40901C10.1698 6.98705 9.59753 6.75 9.00079 6.75Z" fill="#151313"/>
</svg>
