<svg width="18" height="19" viewBox="0 0 18 19" fill="none" xmlns="http://www.w3.org/2000/svg">
<path d="M7.34094 7.90453C6.67222 7.90453 6.01854 7.70617 5.46259 7.33455C4.90664 6.96293 4.47342 6.43475 4.21775 5.81685C3.96207 5.19894 3.89543 4.51908 4.02625 3.86329C4.15708 3.20749 4.47949 2.60525 4.95269 2.13274C5.42589 1.66024 6.02862 1.33872 6.6846 1.20887C7.34058 1.07902 8.02035 1.14667 8.63787 1.40326C9.2554 1.65985 9.78294 2.09385 10.1537 2.65034C10.5245 3.20684 10.7219 3.86082 10.7209 4.52953C10.7183 5.42469 10.3612 6.28236 9.72773 6.91486C9.09429 7.54737 8.2361 7.90321 7.34094 7.90453ZM7.34094 2.14953C6.87022 2.14953 6.41007 2.28912 6.01868 2.55064C5.62729 2.81215 5.32224 3.18386 5.1421 3.61875C4.96197 4.05363 4.91483 4.53217 5.00667 4.99385C5.0985 5.45552 5.32517 5.8796 5.65802 6.21245C5.99087 6.5453 6.41495 6.77197 6.87662 6.8638C7.3383 6.95563 7.81683 6.9085 8.25172 6.72837C8.68661 6.54823 9.05831 6.24318 9.31983 5.85179C9.58135 5.4604 9.72094 5.00025 9.72094 4.52953C9.72094 3.89832 9.47019 3.29296 9.02385 2.84662C8.57751 2.40028 7.97215 2.14953 7.34094 2.14953Z" fill="#151313"/>
<path d="M8.21 16.3401C8.10072 16.2308 8.01643 16.0991 7.96291 15.9541C7.9094 15.8091 7.88793 15.6542 7.9 15.5001H2V12.6101C2.70895 11.8537 3.56885 11.2545 4.52405 10.8514C5.47924 10.4483 6.50843 10.2503 7.545 10.2701H7.905C7.88205 10.1025 7.89808 9.93182 7.95185 9.77139C8.00561 9.61095 8.09567 9.46509 8.215 9.34513L8.275 9.29013C8.04 9.29013 7.775 9.26013 7.545 9.26013C6.3252 9.23117 5.11421 9.47363 3.99959 9.96998C2.88496 10.4663 1.89456 11.2042 1.1 12.1301C1.03509 12.2167 1 12.3219 1 12.4301V15.5001C1 15.7653 1.10536 16.0197 1.29289 16.2072C1.48043 16.3948 1.73478 16.5001 2 16.5001H8.35L8.21 16.3401Z" fill="#151313"/>
<path d="M13.4355 8.64544C13.4603 8.64032 13.4858 8.64032 13.5105 8.64544C13.4857 8.64094 13.4603 8.64094 13.4355 8.64544Z" fill="#151313"/>
<path d="M16.8392 12.1597L15.8392 11.8547C15.7677 11.6102 15.6705 11.3738 15.5492 11.1497L16.0492 10.2197C16.0654 10.1825 16.0693 10.1411 16.0603 10.1015C16.0513 10.0619 16.0299 10.0263 15.9992 9.99974L15.2742 9.27474C15.2467 9.24506 15.2101 9.22547 15.1702 9.21912C15.1303 9.21277 15.0894 9.22004 15.0542 9.23974L14.1342 9.73974C13.9076 9.61239 13.6679 9.51012 13.4192 9.43474L13.1142 8.43474C13.1012 8.39793 13.0767 8.36633 13.0442 8.34468C13.0117 8.32304 12.9731 8.31253 12.9342 8.31474H11.9092C11.8698 8.31429 11.8313 8.32676 11.7997 8.35024C11.7681 8.37372 11.7451 8.40692 11.7342 8.44474L11.4292 9.44474C11.1787 9.5176 10.9372 9.61823 10.7092 9.74474L9.79915 9.24474C9.76464 9.22542 9.72459 9.21836 9.68554 9.22471C9.6465 9.23107 9.61076 9.25047 9.58415 9.27974L8.84415 9.99974C8.81672 10.0286 8.79906 10.0654 8.79367 10.1049C8.78829 10.1444 8.79545 10.1846 8.81415 10.2197L9.31415 11.1297C9.18191 11.3551 9.0762 11.595 8.99915 11.8447L7.99915 12.1447C7.96133 12.1557 7.92813 12.1787 7.90465 12.2103C7.88117 12.2419 7.8687 12.2804 7.86915 12.3197V13.3447C7.87211 13.3809 7.8862 13.4152 7.90949 13.4429C7.93277 13.4707 7.9641 13.4905 7.99915 13.4997L8.99915 13.8047C9.07305 14.05 9.17366 14.2864 9.29915 14.5097L8.79915 15.4647C8.78007 15.499 8.77268 15.5385 8.77809 15.5773C8.78351 15.6161 8.80144 15.6521 8.82915 15.6797L9.55415 16.4047C9.58247 16.433 9.61898 16.4516 9.65849 16.4579C9.69799 16.4642 9.73847 16.4578 9.77415 16.4397L10.7092 15.9397C10.9317 16.0594 11.1663 16.155 11.4092 16.2247L11.7092 17.2247C11.7215 17.2618 11.7448 17.2941 11.7762 17.3173C11.8075 17.3406 11.8452 17.3537 11.8842 17.3547H12.9092C12.9483 17.3544 12.9864 17.3416 13.0178 17.3183C13.0493 17.2949 13.0725 17.2621 13.0842 17.2247L13.3892 16.1997C13.6288 16.1299 13.8601 16.0343 14.0792 15.9147L15.0242 16.4147C15.0589 16.4332 15.0987 16.4398 15.1375 16.4335C15.1764 16.4271 15.2121 16.4083 15.2392 16.3797L15.9992 15.6997C16.0196 15.6704 16.0305 15.6355 16.0305 15.5997C16.0305 15.564 16.0196 15.5291 15.9992 15.4997L15.4992 14.5597C15.6205 14.3392 15.7178 14.1062 15.7892 13.8647L16.7892 13.5597C16.827 13.5488 16.8602 13.5258 16.8837 13.4942C16.9071 13.4626 16.9196 13.4241 16.9192 13.3847V12.3347C16.9237 12.301 16.9187 12.2666 16.9045 12.2357C16.8903 12.2047 16.8677 12.1784 16.8392 12.1597ZM12.4242 14.4997C12.0934 14.5007 11.7699 14.4035 11.4945 14.2204C11.2191 14.0373 11.0043 13.7765 10.8772 13.4711C10.7502 13.1658 10.7167 12.8296 10.781 12.5052C10.8453 12.1808 11.0044 11.8827 11.2383 11.6489C11.4721 11.415 11.7702 11.2559 12.0946 11.1916C12.419 11.1273 12.7552 11.1608 13.0605 11.2878C13.3659 11.4148 13.6267 11.6297 13.8098 11.9051C13.9929 12.1805 14.0901 12.504 14.0892 12.8347C14.0878 13.2759 13.912 13.6987 13.6 14.0106C13.2881 14.3226 12.8653 14.4984 12.4242 14.4997Z" fill="#151313"/>
</svg>
