<svg width="19" height="19" viewBox="0 0 19 19" fill="none" xmlns="http://www.w3.org/2000/svg">
<path d="M9.50091 17.4364C9.2898 17.4364 9.08845 17.3968 8.89687 17.3176C8.70529 17.2385 8.53059 17.1263 8.37279 16.9812L2.01966 10.6281C1.87452 10.4697 1.76237 10.2948 1.6832 10.1032C1.60404 9.91161 1.56445 9.71052 1.56445 9.49994C1.56445 9.28936 1.60404 9.08484 1.6832 8.8864C1.76237 8.68795 1.87452 8.51643 2.01966 8.37182L8.37279 2.01869C8.53112 1.86036 8.70608 1.74477 8.89766 1.67194C9.08924 1.59911 9.29033 1.56295 9.50091 1.56348C9.71149 1.56401 9.91601 1.60043 10.1145 1.67273C10.3129 1.74504 10.4844 1.86036 10.629 2.01869L16.9822 8.37182C17.1405 8.51695 17.2561 8.68848 17.3289 8.8864C17.4017 9.08432 17.4379 9.28883 17.4374 9.49994C17.4368 9.71105 17.4007 9.9124 17.3289 10.104C17.2571 10.2956 17.1416 10.4703 16.9822 10.6281L10.629 16.9812C10.4839 17.1263 10.3124 17.2385 10.1145 17.3176C9.91654 17.3968 9.71202 17.4364 9.50091 17.4364ZM9.50091 15.8531L15.854 9.49994L9.50091 3.14682L3.14779 9.49994L9.50091 15.8531ZM8.70924 10.2916H10.2926V5.54161H8.70924V10.2916ZM9.50091 12.6666C9.72522 12.6666 9.91337 12.5906 10.0654 12.4386C10.2174 12.2866 10.2931 12.0987 10.2926 11.8749C10.2921 11.6512 10.2161 11.4633 10.0646 11.3113C9.91311 11.1593 9.72522 11.0833 9.50091 11.0833C9.27661 11.0833 9.08872 11.1593 8.93724 11.3113C8.78577 11.4633 8.70977 11.6512 8.70924 11.8749C8.70872 12.0987 8.78472 12.2869 8.93724 12.4394C9.08977 12.5919 9.27766 12.6677 9.50091 12.6666Z" fill="#151313"/>
</svg>
