<svg width="18" height="19" viewBox="0 0 18 19" fill="none" xmlns="http://www.w3.org/2000/svg">
<path fill-rule="evenodd" clip-rule="evenodd" d="M3.35922 1.7002H3.29922C3.02442 1.7002 2.78802 1.7002 2.57922 1.7494C2.25598 1.82663 1.96044 1.99185 1.72534 2.22674C1.49023 2.46163 1.32475 2.75703 1.24722 3.0802C1.19922 3.289 1.19922 3.5242 1.19922 3.8002V6.8002C1.19922 7.075 1.19922 7.3114 1.24842 7.5202C1.32566 7.84343 1.49087 8.13898 1.72577 8.37408C1.96066 8.60918 2.25605 8.77467 2.57922 8.8522C2.78802 8.9002 3.02322 8.9002 3.29922 8.9002H6.29922C6.57402 8.9002 6.81042 8.9002 7.01922 8.851C7.34246 8.77376 7.638 8.60854 7.8731 8.37365C8.10821 8.13876 8.27369 7.84336 8.35122 7.5202C8.39922 7.3114 8.39922 7.0762 8.39922 6.8002V3.8002C8.39922 3.5254 8.39922 3.289 8.35002 3.0802C8.27278 2.75696 8.10756 2.46142 7.87267 2.22631C7.63778 1.99121 7.34239 1.82572 7.01922 1.7482C6.81042 1.7002 6.57522 1.7002 6.29922 1.7002H6.23922H3.35922ZM2.85882 2.917C2.91042 2.905 2.99082 2.9002 3.35922 2.9002H6.23922C6.60882 2.9002 6.68802 2.9038 6.73962 2.917C6.84741 2.94277 6.94596 2.99791 7.02434 3.07628C7.10271 3.15465 7.15784 3.2532 7.18362 3.361C7.19562 3.4114 7.19922 3.4906 7.19922 3.8602V6.7402C7.19922 7.1098 7.19562 7.189 7.18242 7.2406C7.15664 7.34839 7.10151 7.44694 7.02314 7.52531C6.94476 7.60368 6.84622 7.65882 6.73842 7.6846C6.68922 7.6954 6.61002 7.7002 6.23922 7.7002H3.35922C2.98962 7.7002 2.91042 7.6966 2.85882 7.6834C2.75102 7.65762 2.65247 7.60249 2.5741 7.52411C2.49573 7.44574 2.4406 7.34719 2.41482 7.2394C2.40402 7.1902 2.39922 7.111 2.39922 6.7402V3.8602C2.39922 3.4906 2.40282 3.4114 2.41602 3.3598C2.4418 3.252 2.49693 3.15345 2.5753 3.07508C2.65367 2.99671 2.75222 2.94157 2.86002 2.9158M11.7592 1.7002H11.6992C11.4244 1.7002 11.188 1.7002 10.9792 1.7494C10.656 1.82663 10.3604 1.99185 10.1253 2.22674C9.89023 2.46163 9.72475 2.75703 9.64722 3.0802C9.59922 3.289 9.59922 3.5242 9.59922 3.8002V6.8002C9.59922 7.075 9.59922 7.3114 9.64842 7.5202C9.72566 7.84343 9.89087 8.13898 10.1258 8.37408C10.3607 8.60918 10.6561 8.77467 10.9792 8.8522C11.188 8.9002 11.4232 8.9002 11.6992 8.9002H14.6992C14.974 8.9002 15.2104 8.9002 15.4192 8.851C15.7425 8.77376 16.038 8.60854 16.2731 8.37365C16.5082 8.13876 16.6737 7.84336 16.7512 7.5202C16.7992 7.3114 16.7992 7.0762 16.7992 6.8002V3.8002C16.7992 3.5254 16.7992 3.289 16.75 3.0802C16.6728 2.75696 16.5076 2.46142 16.2727 2.22631C16.0378 1.99121 15.7424 1.82572 15.4192 1.7482C15.2104 1.7002 14.9752 1.7002 14.6992 1.7002H14.6392H11.7592ZM11.2588 2.917C11.3104 2.905 11.3908 2.9002 11.7592 2.9002H14.6392C15.0088 2.9002 15.088 2.9038 15.1396 2.917C15.2474 2.94277 15.346 2.99791 15.4243 3.07628C15.5027 3.15465 15.5578 3.2532 15.5836 3.361C15.5956 3.4114 15.5992 3.4906 15.5992 3.8602V6.7402C15.5992 7.1098 15.5944 7.189 15.5824 7.2406C15.5566 7.34839 15.5015 7.44694 15.4231 7.52531C15.3448 7.60368 15.2462 7.65882 15.1384 7.6846C15.088 7.6966 15.0088 7.7002 14.6392 7.7002H11.7592C11.3896 7.7002 11.3104 7.6966 11.2588 7.6834C11.151 7.65762 11.0525 7.60249 10.9741 7.52411C10.8957 7.44574 10.8406 7.34719 10.8148 7.2394C10.804 7.1902 10.7992 7.111 10.7992 6.7402V3.8602C10.7992 3.4906 10.8028 3.4114 10.816 3.3598C10.8418 3.252 10.8969 3.15345 10.9753 3.07508C11.0537 2.99671 11.1522 2.94157 11.26 2.9158M3.29922 10.1002H6.29922C6.57402 10.1002 6.81042 10.1002 7.01922 10.1494C7.34246 10.2266 7.638 10.3919 7.8731 10.6267C8.10821 10.8616 8.27369 11.157 8.35122 11.4802C8.39922 11.689 8.39922 11.9242 8.39922 12.2002V15.2002C8.39922 15.475 8.39922 15.7114 8.35002 15.9202C8.27278 16.2434 8.10756 16.539 7.87267 16.7741C7.63778 17.0092 7.34239 17.1747 7.01922 17.2522C6.81042 17.3002 6.57522 17.3002 6.29922 17.3002H3.29922C3.02442 17.3002 2.78802 17.3002 2.57922 17.251C2.25598 17.1738 1.96044 17.0085 1.72534 16.7736C1.49023 16.5388 1.32475 16.2434 1.24722 15.9202C1.19922 15.7114 1.19922 15.4762 1.19922 15.2002V12.2002C1.19922 11.9254 1.19922 11.689 1.24842 11.4802C1.32566 11.157 1.49087 10.8614 1.72577 10.6263C1.96066 10.3912 2.25605 10.2257 2.57922 10.1482C2.78802 10.1002 3.02322 10.1002 3.29922 10.1002ZM3.35922 11.3002C2.98962 11.3002 2.91042 11.3038 2.85882 11.317C2.75102 11.3428 2.65247 11.3979 2.5741 11.4763C2.49573 11.5547 2.4406 11.6532 2.41482 11.761C2.40402 11.8102 2.39922 11.8894 2.39922 12.2602V15.1402C2.39922 15.5098 2.40282 15.589 2.41602 15.6406C2.4418 15.7484 2.49693 15.8469 2.5753 15.9253C2.65367 16.0037 2.75222 16.0588 2.86002 16.0846C2.91042 16.0966 2.98962 16.1002 3.35922 16.1002H6.23922C6.60882 16.1002 6.68802 16.0954 6.73962 16.0834C6.84741 16.0576 6.94596 16.0025 7.02434 15.9241C7.10271 15.8457 7.15784 15.7472 7.18362 15.6394C7.19562 15.589 7.19922 15.5098 7.19922 15.1402V12.2602C7.19922 11.8906 7.19562 11.8114 7.18242 11.7598C7.15664 11.652 7.10151 11.5535 7.02314 11.4751C6.94476 11.3967 6.84622 11.3416 6.73842 11.3158C6.68922 11.305 6.61002 11.3002 6.23922 11.3002H3.35922ZM11.7592 10.1002H11.6992C11.4244 10.1002 11.188 10.1002 10.9792 10.1494C10.656 10.2266 10.3604 10.3919 10.1253 10.6267C9.89023 10.8616 9.72475 11.157 9.64722 11.4802C9.59922 11.689 9.59922 11.9242 9.59922 12.2002V15.2002C9.59922 15.475 9.59922 15.7114 9.64842 15.9202C9.72566 16.2434 9.89087 16.539 10.1258 16.7741C10.3607 17.0092 10.6561 17.1747 10.9792 17.2522C11.188 17.3014 11.4244 17.3014 11.6992 17.3014H14.6992C14.974 17.3014 15.2104 17.3014 15.4192 17.2522C15.7422 17.1748 16.0375 17.0095 16.2724 16.7746C16.5073 16.5397 16.6726 16.2444 16.75 15.9214C16.7992 15.7126 16.7992 15.4762 16.7992 15.2014V12.2002C16.7992 11.9254 16.7992 11.689 16.75 11.4802C16.6728 11.157 16.5076 10.8614 16.2727 10.6263C16.0378 10.3912 15.7424 10.2257 15.4192 10.1482C15.2104 10.1002 14.9752 10.1002 14.6992 10.1002H14.6392H11.7592ZM11.2588 11.317C11.3104 11.305 11.3908 11.3002 11.7592 11.3002H14.6392C15.0088 11.3002 15.088 11.3038 15.1396 11.317C15.2474 11.3428 15.346 11.3979 15.4243 11.4763C15.5027 11.5547 15.5578 11.6532 15.5836 11.761C15.5956 11.8114 15.5992 11.8906 15.5992 12.2602V15.1402C15.5992 15.5098 15.5944 15.589 15.5824 15.6406C15.5566 15.7484 15.5015 15.8469 15.4231 15.9253C15.3448 16.0037 15.2462 16.0588 15.1384 16.0846C15.088 16.0966 15.0088 16.1002 14.6392 16.1002H11.7592C11.3896 16.1002 11.3104 16.0954 11.2588 16.0834C11.151 16.0576 11.0525 16.0025 10.9741 15.9241C10.8957 15.8457 10.8406 15.7472 10.8148 15.6394C10.804 15.5902 10.7992 15.511 10.7992 15.1402V12.2602C10.7992 11.8906 10.8028 11.8114 10.816 11.7598C10.8418 11.652 10.8969 11.5535 10.9753 11.4751C11.0537 11.3967 11.1522 11.3416 11.26 11.3158" fill="white"/>
</svg>
