<svg width="18" height="17" viewBox="0 0 18 17" fill="none" xmlns="http://www.w3.org/2000/svg">
<path d="M6.51784 0.789346C6.7288 0.578441 7.0149 0.459961 7.31321 0.459961C7.61152 0.459961 7.89762 0.578441 8.10859 0.789346L8.83646 1.5161C8.94208 1.62172 9.00142 1.76497 9.00142 1.91435C9.00142 2.06372 8.94208 2.20697 8.83646 2.3126C8.73084 2.41822 8.58758 2.47756 8.43821 2.47756C8.28884 2.47756 8.14558 2.41822 8.03996 2.3126L7.31321 1.58472L2.25071 6.64722V13.7268C2.25071 13.876 2.30997 14.0191 2.41546 14.1246C2.52095 14.2301 2.66403 14.2893 2.81321 14.2893C2.96239 14.2893 3.10547 14.3486 3.21096 14.4541C3.31645 14.5596 3.37571 14.7027 3.37571 14.8518C3.37571 15.001 3.31645 15.1441 3.21096 15.2496C3.10547 15.3551 2.96239 15.4143 2.81321 15.4143C2.36566 15.4143 1.93644 15.2366 1.61997 14.9201C1.3035 14.6036 1.12571 14.1744 1.12571 13.7268V7.77222L0.96146 7.9376C0.855838 8.04322 0.712583 8.10256 0.56321 8.10256C0.413838 8.10256 0.270583 8.04322 0.164961 7.9376C0.0593381 7.83197 2.22583e-09 7.68872 0 7.53935C-2.22583e-09 7.38997 0.0593381 7.24672 0.164961 7.1411L6.51784 0.789346ZM9.89284 1.91435C10.1038 1.70344 10.3899 1.58496 10.6882 1.58496C10.9865 1.58496 11.2726 1.70344 11.4836 1.91435L13.5007 3.93147V2.47685C13.5007 2.32766 13.56 2.18459 13.6655 2.0791C13.771 1.97361 13.914 1.91435 14.0632 1.91435H15.1882C15.3374 1.91435 15.4805 1.97361 15.586 2.0791C15.6914 2.18459 15.7507 2.32766 15.7507 2.47685V6.18147L17.8365 8.2661C17.9421 8.37172 18.0014 8.51497 18.0014 8.66435C18.0014 8.81372 17.9421 8.95697 17.8365 9.0626C17.7308 9.16822 17.5876 9.22756 17.4382 9.22756C17.2888 9.22756 17.1456 9.16822 17.04 9.0626L16.8757 8.89722V14.8518C16.8757 15.2994 16.6979 15.7286 16.3815 16.0451C16.065 16.3616 15.6358 16.5393 15.1882 16.5393H6.18821C5.74066 16.5393 5.31144 16.3616 4.99497 16.0451C4.6785 15.7286 4.50071 15.2994 4.50071 14.8518V8.89722L4.33646 9.0626C4.28416 9.11489 4.22207 9.15638 4.15374 9.18468C4.08541 9.21299 4.01217 9.22756 3.93821 9.22756C3.86425 9.22756 3.79101 9.21299 3.72268 9.18468C3.65435 9.15638 3.59226 9.11489 3.53996 9.0626C3.48766 9.0103 3.44618 8.94821 3.41787 8.87988C3.38957 8.81155 3.375 8.73831 3.375 8.66435C3.375 8.59038 3.38957 8.51715 3.41787 8.44881C3.44618 8.38048 3.48766 8.31839 3.53996 8.2661L9.89284 1.91435ZM10.6882 2.70972L5.62571 7.77222V14.8518C5.62571 15.001 5.68497 15.1441 5.79046 15.2496C5.89595 15.3551 6.03903 15.4143 6.18821 15.4143H15.1882C15.3374 15.4143 15.4805 15.3551 15.586 15.2496C15.6914 15.1441 15.7507 15.001 15.7507 14.8518V7.77222L10.6882 2.70972Z" fill="#151313"/>
</svg>
