<svg width="16" height="17" viewBox="0 0 16 17" fill="none" xmlns="http://www.w3.org/2000/svg">
<path d="M8 1.5C7.60218 1.5 7.22064 1.65804 6.93934 1.93934C6.65804 2.22064 6.5 2.60218 6.5 3C6.5 3.39782 6.65804 3.77936 6.93934 4.06066C7.22064 4.34196 7.60218 4.5 8 4.5C8.39782 4.5 8.77936 4.34196 9.06066 4.06066C9.34196 3.77936 9.5 3.39782 9.5 3C9.5 2.60218 9.34196 2.22064 9.06066 1.93934C8.77936 1.65804 8.39782 1.5 8 1.5ZM5.5 3C5.5 2.33696 5.76339 1.70107 6.23223 1.23223C6.70107 0.763392 7.33696 0.5 8 0.5C8.66304 0.5 9.29893 0.763392 9.76777 1.23223C10.2366 1.70107 10.5 2.33696 10.5 3C10.5 3.66304 10.2366 4.29893 9.76777 4.76777C9.29893 5.23661 8.66304 5.5 8 5.5C7.33696 5.5 6.70107 5.23661 6.23223 4.76777C5.76339 4.29893 5.5 3.66304 5.5 3ZM13.5 2.5C13.2348 2.5 12.9804 2.60536 12.7929 2.79289C12.6054 2.98043 12.5 3.23478 12.5 3.5C12.5 3.76522 12.6054 4.01957 12.7929 4.20711C12.9804 4.39464 13.2348 4.5 13.5 4.5C13.7652 4.5 14.0196 4.39464 14.2071 4.20711C14.3946 4.01957 14.5 3.76522 14.5 3.5C14.5 3.23478 14.3946 2.98043 14.2071 2.79289C14.0196 2.60536 13.7652 2.5 13.5 2.5ZM11.5 3.5C11.5 2.96957 11.7107 2.46086 12.0858 2.08579C12.4609 1.71071 12.9696 1.5 13.5 1.5C14.0304 1.5 14.5391 1.71071 14.9142 2.08579C15.2893 2.46086 15.5 2.96957 15.5 3.5C15.5 4.03043 15.2893 4.53914 14.9142 4.91421C14.5391 5.28929 14.0304 5.5 13.5 5.5C12.9696 5.5 12.4609 5.28929 12.0858 4.91421C11.7107 4.53914 11.5 4.03043 11.5 3.5ZM1.5 3.5C1.5 3.23478 1.60536 2.98043 1.79289 2.79289C1.98043 2.60536 2.23478 2.5 2.5 2.5C2.76522 2.5 3.01957 2.60536 3.20711 2.79289C3.39464 2.98043 3.5 3.23478 3.5 3.5C3.5 3.76522 3.39464 4.01957 3.20711 4.20711C3.01957 4.39464 2.76522 4.5 2.5 4.5C2.23478 4.5 1.98043 4.39464 1.79289 4.20711C1.60536 4.01957 1.5 3.76522 1.5 3.5ZM2.5 1.5C1.96957 1.5 1.46086 1.71071 1.08579 2.08579C0.710714 2.46086 0.5 2.96957 0.5 3.5C0.5 4.03043 0.710714 4.53914 1.08579 4.91421C1.46086 5.28929 1.96957 5.5 2.5 5.5C3.03043 5.5 3.53914 5.28929 3.91421 4.91421C4.28929 4.53914 4.5 4.03043 4.5 3.5C4.5 2.96957 4.28929 2.46086 3.91421 2.08579C3.53914 1.71071 3.03043 1.5 2.5 1.5ZM3.1 13.498L3 13.5C2.46957 13.5 1.96086 13.2893 1.58579 12.9142C1.21071 12.5391 1 12.0304 1 11.5V7.75C1 7.6837 1.02634 7.62011 1.07322 7.57322C1.12011 7.52634 1.1837 7.5 1.25 7.5H3.014C3.054 7.133 3.184 6.792 3.379 6.5H1.25C0.56 6.5 1.78381e-08 7.06 1.78381e-08 7.75V11.5C-4.66659e-05 11.9281 0.0915386 12.3513 0.268602 12.7411C0.445665 13.1309 0.704104 13.4782 1.02655 13.7599C1.34901 14.0415 1.728 14.2508 2.13807 14.3738C2.54813 14.4968 2.97978 14.5307 3.404 14.473C3.26965 14.1592 3.16779 13.8325 3.1 13.498ZM12.596 14.473C12.728 14.491 12.8627 14.5 13 14.5C13.7956 14.5 14.5587 14.1839 15.1213 13.6213C15.6839 13.0587 16 12.2956 16 11.5V7.75C16 7.06 15.44 6.5 14.75 6.5H12.621C12.817 6.792 12.946 7.133 12.986 7.5H14.75C14.8163 7.5 14.8799 7.52634 14.9268 7.57322C14.9737 7.62011 15 7.6837 15 7.75V11.5C15.0001 11.7711 14.945 12.0394 14.8382 12.2886C14.7314 12.5377 14.575 12.7626 14.3786 12.9495C14.1822 13.1363 13.9498 13.2813 13.6956 13.3756C13.4415 13.4699 13.1708 13.5116 12.9 13.498C12.8322 13.8325 12.7303 14.1592 12.596 14.473ZM5.25 6.5C4.56 6.5 4 7.06 4 7.75V12.5C4 13.5609 4.42143 14.5783 5.17157 15.3284C5.92172 16.0786 6.93913 16.5 8 16.5C9.06087 16.5 10.0783 16.0786 10.8284 15.3284C11.5786 14.5783 12 13.5609 12 12.5V7.75C12 7.06 11.44 6.5 10.75 6.5H5.25ZM5 7.75C5 7.6837 5.02634 7.62011 5.07322 7.57322C5.12011 7.52634 5.1837 7.5 5.25 7.5H10.75C10.8163 7.5 10.8799 7.52634 10.9268 7.57322C10.9737 7.62011 11 7.6837 11 7.75V12.5C11 13.2956 10.6839 14.0587 10.1213 14.6213C9.55871 15.1839 8.79565 15.5 8 15.5C7.20435 15.5 6.44129 15.1839 5.87868 14.6213C5.31607 14.0587 5 13.2956 5 12.5V7.75Z" fill="#151313"/>
</svg>
