<svg width="22" height="24" viewBox="0 0 22 24" fill="none" xmlns="http://www.w3.org/2000/svg">
<path d="M21.6541 16.6698L19.3623 12.4388V8.03343C19.3623 3.63502 15.784 0.0566406 11.3856 0.0566406C6.98714 0.0566406 3.40877 3.63502 3.40877 8.03343V12.4388L1.11691 16.6698C1.01298 16.8616 0.960665 17.0772 0.965104 17.2953C0.969544 17.5135 1.03058 17.7267 1.14223 17.9142C1.25388 18.1017 1.41232 18.2569 1.60202 18.3647C1.79172 18.4725 2.00618 18.5292 2.22437 18.5292H6.78662C6.7739 18.6688 6.76747 18.8089 6.76736 18.949C6.76736 20.1738 7.25392 21.3485 8.11999 22.2146C8.98605 23.0806 10.1607 23.5672 11.3855 23.5672C12.6103 23.5672 13.785 23.0806 14.651 22.2146C15.5171 21.3485 16.0036 20.1738 16.0036 18.949C16.0036 18.8073 15.9969 18.6675 15.9844 18.5292H20.5466C20.7648 18.5292 20.9792 18.4725 21.1689 18.3647C21.3586 18.2568 21.517 18.1016 21.6286 17.9142C21.7403 17.7267 21.8013 17.5135 21.8057 17.2953C21.8102 17.0772 21.758 16.8617 21.6541 16.6698ZM14.3244 18.949C14.3247 19.3529 14.2418 19.7525 14.0808 20.1229C13.9198 20.4933 13.6842 20.8265 13.3887 21.1018C13.0932 21.3771 12.7441 21.5885 12.3632 21.7229C11.9824 21.8572 11.5779 21.9116 11.1751 21.8827C10.7723 21.8538 10.3797 21.7421 10.022 21.5547C9.6642 21.3674 9.3489 21.1082 9.09575 20.7936C8.8426 20.4789 8.65702 20.1154 8.5506 19.7258C8.44418 19.3362 8.4192 18.9289 8.47723 18.5292H14.2938C14.314 18.6682 14.3242 18.8085 14.3244 18.949ZM2.92921 16.8499L5.08809 12.8644V8.03343C5.08809 6.36324 5.75157 4.76145 6.93258 3.58045C8.11358 2.39945 9.71537 1.73596 11.3856 1.73596C13.0557 1.73596 14.6575 2.39945 15.8385 3.58045C17.0195 4.76145 17.683 6.36324 17.683 8.03343V12.8644L19.8418 16.8499H2.92921Z" fill="#151313"/>
<circle cx="17.7664" cy="4.25666" r="4.20002" fill="#FC003C"/>
</svg>
