<svg width="130" height="96" viewBox="0 0 130 96" fill="none" xmlns="http://www.w3.org/2000/svg">
<g id="Element 09" clip-path="url(#clip0_523_3257)">
<path id="Vector" d="M79.2569 62.2964C69.1559 69.5691 34.3506 77.7969 22.2549 75.7551C23.3818 75.0429 24.1608 74.4691 25.0872 74.0125C26.7359 73.0925 28.4148 72.2485 30.0332 71.2527C31.3908 70.3608 31.7845 69.3251 31.0742 68.553C30.2734 67.5532 29.2866 67.8581 28.1862 68.384C23.9021 70.5287 19.5611 72.7839 15.2504 75.1149C13.2539 76.1733 13.1586 77.7056 14.8666 78.9595C15.5732 79.4694 16.5105 79.7995 17.2172 80.3093C22.0694 83.3883 26.8044 86.4261 31.5394 89.4638C31.9513 89.7394 32.3065 90.1254 32.7147 90.1387C33.5313 90.1653 34.6389 90.164 35.0701 89.7286C35.5882 89.2587 35.7778 88.2164 35.5362 87.6093C35.2643 86.9264 34.5577 86.4166 33.938 85.8721C31.9655 84.4597 29.8492 83.1925 27.8767 81.7801C27.3174 81.3874 26.8451 80.9601 26.1083 80.3744C26.7472 80.2079 27.0081 80.1041 27.2122 80.1107C45.4788 79.4327 62.8367 74.1939 79.64 66.8026C82.1318 65.7229 84.5028 64.3397 86.6092 62.7981C89.2337 60.7866 92.0999 59.3821 95.2041 58.3223C101.295 56.1616 106.82 53.0837 111.51 48.6679C114.157 46.2078 116.362 43.3962 117.922 40.2265C121.29 32.9965 120.326 26.5241 115.032 21.0716C110.805 16.7772 105.117 14.3824 98.8041 13.2031C86.8219 10.9403 74.9548 12.763 63.3089 17.9258C62.4392 18.2719 61.7471 18.8111 61.0249 19.2744C60.0417 19.8415 59.6444 20.615 60.124 21.5668C60.6035 22.5186 61.594 22.476 62.5506 22.0952C63.0724 21.8875 63.6509 21.5694 64.1727 21.3617C73.2097 17.2373 82.6044 15.7834 92.2021 16.3583C97.483 16.7176 102.427 18.0021 106.89 20.3569C109.74 21.9477 112.215 23.8632 113.797 26.5736C116.395 31.077 116.083 35.8601 113.117 40.5567C109.469 46.5793 103.752 50.4373 96.6544 53.6138C96.9044 52.7232 97.071 52.1294 97.2679 51.6116C97.4079 51.2042 97.635 50.7623 97.8621 50.3203C100.742 43.6362 99.3734 37.4127 93.8339 33.113C92.5378 32.1346 91.1547 31.1908 89.6883 30.5438C77.05 25.1141 64.4195 26.5375 52.107 34.0751C46.6162 37.4912 43.5932 42.2983 44.1722 48.3088C44.5481 52.2904 46.8336 55.2484 50.159 57.5287C53.1897 59.5747 56.7047 60.8126 60.5337 61.574C65.678 62.6029 71.0724 62.7412 76.4896 62.4309C77.3629 62.347 78.1794 62.3737 79.2569 62.2964ZM60.1175 33.6995C66.7039 31.5175 74.1249 30.6733 80.29 31.7355C84.1757 32.3864 87.8079 33.6656 90.7552 36.0085C94.9419 39.4403 96.051 43.7454 93.7612 48.876C92.7999 51.0166 91.196 53.0614 89.6489 54.9957C88.9604 55.7972 87.7164 56.4681 86.7296 56.773C77.1719 59.0829 67.7928 59.5637 58.7783 56.9108C56.3782 56.196 54.088 54.9979 52.2327 53.6268C47.018 49.6372 47.2217 43.3153 52.6677 38.7743C54.7971 36.7841 57.5763 35.4142 60.1175 33.6995Z" fill="white"/>
</g>
<defs>
<clipPath id="clip0_523_3257">
<rect width="116.449" height="56.4007" fill="white" transform="matrix(0.929108 -0.369808 -0.369808 -0.929108 20.8574 95.4661)"/>
</clipPath>
</defs>
</svg>
