<svg width="50" height="50" viewBox="0 0 50 50" fill="none" xmlns="http://www.w3.org/2000/svg">
<path id="Star 2" d="M22.1864 2.60352C23.1529 -0.00833321 26.8471 -0.00833654 27.8136 2.60352L32.624 15.6036C32.9279 16.4247 33.5753 17.0721 34.3964 17.376L47.3965 22.1864C50.0083 23.1529 50.0083 26.8471 47.3965 27.8136L34.3964 32.624C33.5753 32.9279 32.9279 33.5753 32.624 34.3964L27.8136 47.3965C26.8471 50.0083 23.1529 50.0083 22.1864 47.3965L17.376 34.3964C17.0721 33.5753 16.4247 32.9279 15.6036 32.624L2.60352 27.8136C-0.00833321 26.8471 -0.00833654 23.1529 2.60352 22.1864L15.6036 17.376C16.4247 17.0721 17.0721 16.4247 17.376 15.6036L22.1864 2.60352Z" fill="#BAF08F"/>
</svg>
