<svg width="22" height="22" viewBox="0 0 22 22" fill="none" xmlns="http://www.w3.org/2000/svg">
<path id="Vector" d="M11 0C4.95 0 0 4.95 0 11C0 17.05 4.95 22 11 22C17.05 22 22 17.05 22 11C22 4.95 17.05 0 11 0ZM11 2.44444C12.8944 2.44444 14.6667 3.11667 16.1333 4.15556L4.15556 16.1333C3.11667 14.6667 2.44444 12.8944 2.44444 11C2.44444 6.29444 6.29444 2.44444 11 2.44444ZM11 19.5556C9.10556 19.5556 7.33333 18.8833 5.86667 17.8444L17.8444 5.86667C18.8833 7.33333 19.5556 9.10556 19.5556 11C19.5556 15.7056 15.7056 19.5556 11 19.5556Z" fill="#F34357"/>
</svg>
